<svg id="Capa_1" enable-background="new 0 0 512 512" height="512" viewBox="0 0 512 512" width="512" xmlns="http://www.w3.org/2000/svg"><g><path d="m207.086 364.516-9.871 11.295c16.271 14.219 37.147 22.05 58.785 22.05 49.274 0 89.361-40.087 89.361-89.361s-40.087-89.361-89.361-89.361-89.361 40.087-89.361 89.361c0 20.368 6.673 39.551 19.297 55.476l11.754-9.318c-10.501-13.246-16.051-29.207-16.051-46.157 0-41.003 33.358-74.361 74.361-74.361s74.361 33.358 74.361 74.361-33.358 74.36-74.361 74.36c-18.006 0-35.378-6.515-48.914-18.345z"/><path d="m256 367.861c32.731 0 59.361-26.629 59.361-59.361 0-19.646-9.69-37.988-25.922-49.063l-8.455 12.391c12.134 8.278 19.377 21.988 19.377 36.672 0 24.461-19.9 44.361-44.361 44.361z"/><path d="m256 249.139v15c4.605 0 9.144.701 13.488 2.084l4.549-14.294c-5.817-1.851-11.887-2.79-18.037-2.79z"/><path d="m45 106.639c0-4.136 3.364-7.5 7.5-7.5h37.5c4.135 0 7.499 3.364 7.499 7.5v7.5h15v-7.5c0-12.407-10.093-22.5-22.499-22.5h-37.5c-12.406 0-22.5 10.093-22.5 22.5v7.5h15z"/><path d="m467 234.139h15v45h-15z"/><path d="m467 204.139h15v15h-15z"/><path d="m30 337.861h15v45h-15z"/><path d="m30 397.861h15v15h-15z"/><path d="m512 367.862v-216.223c0-12.406-10.094-22.5-22.5-22.5h-109.752l-44.999-60h-157.498l-44.999 60h-109.752c-12.406 0-22.5 10.093-22.5 22.5v75h15v-37.499h179.356c-43.158 22.38-72.717 67.481-72.717 119.361s29.559 96.981 72.717 119.361h-171.856c-4.136 0-7.5-3.364-7.5-7.5v-178.724h-15v178.723c0 12.406 10.094 22.5 22.5 22.5h233.5 233.5c12.406 0 22.5-10.093 22.5-22.5v-37.5h-15v37.5c0 4.135-3.364 7.5-7.5 7.5h-171.856c43.158-22.38 72.717-67.481 72.717-119.361 0-29.462-9.364-57.435-27.079-80.894l-11.971 9.039c15.733 20.835 24.05 45.682 24.05 71.855 0 65.816-53.545 119.361-119.361 119.361-65.815 0-119.36-53.545-119.36-119.361s53.545-119.361 119.36-119.361c32.831 0 63.43 13.056 86.162 36.763l10.826-10.382c-10.383-10.828-22.224-19.682-35.1-26.381h179.112v178.723zm-497-193.723v-22.5c0-4.135 3.364-7.5 7.5-7.5h117.252l44.999-60h142.498l44.999 60h117.252c4.136 0 7.5 3.364 7.5 7.5v22.5z"/><path d="m192.251 99.139-33.75 45h89.999v-15h-59.999l11.25-15h112.498l11.25 15h-59.999v15h89.999l-33.75-45z"/></g></svg>